<svg width="520" height="254" viewBox="0 0 520 254" fill="none" xmlns="http://www.w3.org/2000/svg">
<g clip-path="url(#clip0_9_112)">
<path d="M83.3085 19.6761C84.3619 17.0304 86.6334 15.4619 88.3801 16.17C90.1268 16.8781 90.6899 19.6 89.6365 22.2458C89.2305 23.3079 88.5678 24.252 87.6983 24.9982L83.0864 36.1448L77.6968 33.7503L82.8144 23.0148C82.6995 21.8689 82.868 20.723 83.3047 19.6723L83.3085 19.6761Z" fill="#A0616A"/>
<path d="M64.6293 90.8197C64.6293 90.8197 57.0528 87.0897 57.5781 84.4124C58.1035 81.7312 80.6756 24.6335 80.6756 24.6335L91.1267 31.6129L64.6293 90.8235V90.8197Z" fill="#FDDD00"/>
<path d="M57.552 64.7339L67.1448 67.8009V54.371H58.4398L57.552 64.7339Z" fill="#A0616A"/>
<path d="M66.1855 58.2082C71.4835 58.2082 75.7783 53.6986 75.7783 48.1358C75.7783 42.5729 71.4835 38.0634 66.1855 38.0634C60.8876 38.0634 56.5928 42.5729 56.5928 48.1358C56.5928 53.6986 60.8876 58.2082 66.1855 58.2082Z" fill="#A0616A"/>
<path d="M63.459 49.1657L64.7667 50.7642L67.1295 46.594C67.1295 46.594 70.1461 46.7512 70.1461 44.4939C70.1461 42.2366 72.9138 42.1729 72.9138 42.1729C72.9138 42.1729 76.8332 35.2774 68.7158 37.093C68.7158 37.093 63.0838 33.2073 60.2864 36.5277C60.2864 36.5277 51.7009 40.8852 54.1566 48.4695L58.2394 56.2896L59.1645 54.5189C59.1645 54.5189 58.6035 47.0881 63.459 49.1583V49.1657Z" fill="#2F2E41"/>
<path d="M54.6742 221.285H62.3484V209.774H54.6742V221.285Z" fill="#A0616A"/>
<path d="M61.3485 227.643C59.9923 227.761 53.2036 228.283 52.8626 226.772C52.552 225.386 53.0104 223.938 53.0748 223.739C53.7264 217.438 53.9688 217.368 54.1166 217.327C54.3476 217.261 55.022 217.574 56.1168 218.257L56.185 218.301L56.2002 218.379C56.2191 218.478 56.704 220.79 59.0036 220.434C60.5795 220.191 61.0909 219.853 61.2538 219.688C61.1212 219.629 60.9546 219.526 60.8371 219.349C60.6666 219.092 60.6363 218.761 60.75 218.364C61.0455 217.316 61.932 215.768 61.9698 215.706L62.0721 215.529L71.0884 221.434L76.6573 222.978C77.0778 223.096 77.415 223.386 77.5855 223.776C77.8204 224.32 77.6764 224.952 77.2218 225.349C76.2103 226.232 74.2025 227.743 72.0924 227.93C71.5317 227.982 70.7892 228 69.9557 228C66.4742 228 61.3902 227.651 61.3523 227.643H61.3485Z" fill="#2F2E41"/>
<path d="M72.4745 112.994L52.0148 111.928C52.0148 111.928 48.8787 124.039 52.8417 136.658L53.3185 212.652H64.8799L75.7783 134.26L72.4745 112.994Z" fill="#2F2E41"/>
<path d="M68.934 62.3424L57.6442 56.2896C57.6442 56.2896 45.4782 74.2512 47.1595 83.9811C48.8445 93.7109 51.8327 111.824 51.8327 111.824L76.7376 112.887L72.3902 77.2171L68.934 62.3424Z" fill="#FDDD00"/>
<path d="M60.4299 221.285H68.1041V209.774H60.4299V221.285Z" fill="#A0616A"/>
<path d="M67.1042 227.643C65.748 227.761 58.9592 228.283 58.6183 226.772C58.3076 225.386 58.766 223.938 58.8304 223.739C59.482 217.438 59.7245 217.368 59.8722 217.327C60.1033 217.261 60.7777 217.574 61.8725 218.257L61.9407 218.301L61.9558 218.379C61.9748 218.478 62.4597 220.79 64.7592 220.434C66.3352 220.191 66.8466 219.853 67.0095 219.688C66.8769 219.629 66.7102 219.526 66.5928 219.349C66.4223 219.092 66.392 218.761 66.5057 218.364C66.8012 217.316 67.6876 215.768 67.7255 215.706L67.8278 215.529L76.8441 221.434L82.413 222.978C82.8335 223.096 83.1707 223.386 83.3412 223.776C83.576 224.32 83.4321 224.952 82.9775 225.349C81.966 226.232 79.9581 227.743 77.848 227.93C77.2874 227.982 76.5448 228 75.7114 228C72.2299 228 67.1459 227.651 67.108 227.643H67.1042Z" fill="#2F2E41"/>
<path d="M77.2163 112.994L52.0343 111.928C52.0343 111.928 48.8463 124.039 52.8748 136.658L57.7439 212.652H69.4962L80.5747 134.26L77.2163 112.994Z" fill="#2F2E41"/>
<path d="M86.8901 132.79C87.7858 135.448 87.1241 138.079 85.4168 138.67C83.7094 139.257 81.6 137.582 80.7043 134.921C80.3313 133.863 80.2217 132.73 80.3825 131.615L76.7375 120.303L82.1337 118.643L85.1572 129.97C85.9578 130.757 86.5538 131.724 86.8938 132.79H86.8901Z" fill="#A0616A"/>
<path d="M54.6742 66.7918C54.6742 66.7918 62.9127 64.6303 64.2541 66.9719C65.5917 69.3135 85.371 126.622 85.371 126.622L72.8156 128.235L54.678 66.7918H54.6742Z" fill="#FDDD00"/>
<path d="M0 229.21C0 229.725 0.585777 230.136 1.31937 230.136H518.681C519.409 230.136 520 229.725 520 229.21C520 228.695 519.414 228.284 518.681 228.284H1.31937C0.591251 228.284 0 228.695 0 229.21Z" fill="#2F2E43"/>
<path d="M432.046 230.52H89.049V9.48309C89.049 4.25671 93.2973 0 98.5255 0H422.569C427.792 0 432.046 4.25123 432.046 9.48309V230.52Z" fill="#2F2E41"/>
<path d="M460.596 254H59.6452C58.2601 254 57.1269 253.14 56.7492 251.803C56.3769 250.472 56.897 249.141 58.0795 248.423L89.3337 229.342H432.161L432.259 229.402L462.216 248.45C463.371 249.184 463.875 250.51 463.492 251.831C463.109 253.145 461.975 254 460.607 254H460.596Z" fill="#DFDFDF"/>
<path d="M422.657 14.0904H98.0437V216.04H422.657V14.0904Z" fill="white"/>
<path d="M435.172 241.871H87.0946L104.301 227.901H418.748L435.172 241.871Z" fill="#2F2E41"/>
<path d="M342.876 251.261H177.83L184.087 241.871H336.619L342.876 251.261Z" fill="#2F2E41"/>
<path d="M357.641 93.9489H340.446C338.951 93.9489 337.736 92.7327 337.736 91.2371C337.736 89.7415 338.951 88.5253 340.446 88.5253H357.641C359.136 88.5253 360.351 89.7415 360.351 91.2371C360.351 92.7327 359.136 93.9489 357.641 93.9489Z" fill="#DFDFDF"/>
<path d="M377.415 93.9489H369.39C367.895 93.9489 366.68 92.7327 366.68 91.2371C366.68 89.7415 367.895 88.5253 369.39 88.5253H377.415C378.91 88.5253 380.125 89.7415 380.125 91.2371C380.125 92.7327 378.91 93.9489 377.415 93.9489Z" fill="#DFDFDF"/>
<path d="M185.478 96.0197H133.141C130.469 96.0197 128.296 93.8448 128.296 91.1713C128.296 88.4979 130.469 86.323 133.141 86.323H185.478C188.149 86.323 190.323 88.4979 190.323 91.1713C190.323 93.8448 188.149 96.0197 185.478 96.0197Z" fill="#006434"/>
<path d="M157.103 108.954H131.882C130.256 108.954 128.926 107.628 128.926 105.996C128.926 104.363 130.25 103.038 131.882 103.038H157.103C158.729 103.038 160.059 104.363 160.059 105.996C160.059 107.628 158.735 108.954 157.103 108.954Z" fill="#DFDFDF"/>
<path d="M296.146 120.629H131.247C129.621 120.629 128.291 119.303 128.291 117.67C128.291 116.038 129.615 114.712 131.247 114.712H296.146C297.772 114.712 299.102 116.038 299.102 117.67C299.102 119.303 297.777 120.629 296.146 120.629Z" fill="#DFDFDF"/>
<path d="M281.961 128.517H131.247C129.621 128.517 128.291 127.192 128.291 125.559C128.291 123.927 129.615 122.601 131.247 122.601H281.956C283.582 122.601 284.912 123.927 284.912 125.559C284.912 127.192 283.587 128.517 281.956 128.517H281.961Z" fill="#DFDFDF"/>
<path d="M459.172 83.3701L451.114 86.0217V74.4075H458.428L459.172 83.3701Z" fill="#F2A7AA"/>
<path d="M452.11 77.6233C456.546 77.6233 460.141 74.0251 460.141 69.5865C460.141 65.1479 456.546 61.5497 452.11 61.5497C447.675 61.5497 444.079 65.1479 444.079 69.5865C444.079 74.0251 447.675 77.6233 452.11 77.6233Z" fill="#F2A7AA"/>
<path d="M454.316 68.7921C452.97 68.7538 452.088 67.3897 451.568 66.1515C451.048 64.908 450.506 63.4836 449.263 62.9686C448.245 62.5468 446.444 65.3791 445.639 64.6286C444.802 63.8451 445.617 59.8021 446.51 59.0789C447.402 58.3558 448.617 58.2134 449.767 58.1586C452.565 58.0271 455.384 58.2572 458.127 58.8269C459.824 59.183 461.57 59.7144 462.796 60.9416C464.346 62.4975 464.745 64.8477 464.855 67.0445C464.97 69.2907 464.838 71.6464 463.749 73.6076C462.66 75.5744 460.371 77.0261 458.181 76.5221C457.962 75.3278 458.181 74.1062 458.269 72.8954C458.351 71.6847 458.269 70.3809 457.53 69.4167C456.791 68.4525 455.214 68.0745 454.355 68.9291" fill="#36344E"/>
<path d="M464.198 71.5751C465.003 70.9835 465.961 70.4959 466.952 70.6164C468.019 70.7479 468.922 71.6299 469.196 72.6708C469.47 73.7117 469.163 74.8622 468.501 75.7113C467.839 76.5605 466.859 77.1247 465.818 77.4096C465.216 77.574 464.559 77.6397 463.984 77.3932C463.141 77.0316 462.687 75.9469 463.015 75.0923" fill="#36344E"/>
<path d="M456.512 212.561H448.962V223.277H456.512V212.561Z" fill="#F2A7AA"/>
<path d="M441.61 229.769C440.816 229.769 440.11 229.747 439.579 229.698C437.575 229.512 435.659 228.032 434.696 227.167C434.263 226.778 434.126 226.159 434.351 225.622C434.509 225.238 434.832 224.954 435.232 224.839L440.531 223.321L449.11 217.525L449.203 217.695C449.241 217.76 450.079 219.278 450.364 220.302C450.473 220.691 450.44 221.02 450.282 221.272C450.167 221.447 450.013 221.546 449.882 221.606C450.035 221.771 450.523 222.099 452.023 222.34C454.207 222.691 454.672 220.417 454.689 220.324L454.705 220.248L454.771 220.204C455.811 219.53 456.451 219.229 456.676 219.294C456.813 219.338 457.043 219.404 457.667 225.589C457.727 225.781 458.165 227.205 457.869 228.564C457.546 230.043 451.086 229.534 449.794 229.418C449.756 229.418 444.922 229.769 441.604 229.769H441.61Z" fill="#36344E"/>
<path d="M478.005 204.134L471.599 208.132L477.266 217.225L483.672 213.227L478.005 204.134Z" fill="#F2A7AA"/>
<path d="M469.503 228.301C468.616 228.301 467.8 228.197 467.22 228.093C466.651 227.994 466.202 227.539 466.109 226.964C466.043 226.553 466.163 226.142 466.443 225.83L470.138 221.738L474.353 212.277L474.523 212.37C474.589 212.403 476.105 213.246 476.888 213.969C477.184 214.243 477.331 214.534 477.326 214.835C477.326 215.043 477.244 215.213 477.167 215.328C477.386 215.383 477.972 215.405 479.373 214.813C481.415 213.953 480.605 211.778 480.572 211.685L480.545 211.614L480.578 211.542C481.109 210.419 481.487 209.822 481.711 209.762C481.848 209.724 482.083 209.663 485.877 214.578C486.03 214.709 487.153 215.684 487.624 216.999C488.133 218.423 482.379 221.415 481.224 222.001C481.185 222.028 475.169 226.405 472.7 227.649C471.72 228.142 470.559 228.295 469.503 228.295V228.301Z" fill="#36344E"/>
<path d="M462.074 122.924H440.937L439.02 142.602L447.413 215.306H458.203L453.889 173.314L471.391 211.225L480.983 204.508L467.313 169.118C467.313 169.118 472.196 138.285 468.359 130.605C464.521 122.924 462.074 122.924 462.074 122.924Z" fill="#36344E"/>
<path d="M472.585 124.124H439.015L449.088 80.6967H463.711L472.585 124.124Z" fill="#006434"/>
<path d="M430.677 79.8365C430.141 77.196 431.121 74.78 432.867 74.4458C434.613 74.1116 436.458 75.9798 436.995 78.6258C437.225 79.6777 437.186 80.7679 436.891 81.8088L439.015 93.034L433.53 93.8996L432.019 82.7456C431.34 81.8964 430.88 80.8994 430.677 79.8365Z" fill="#F2A7AA"/>
<path d="M463.355 80.6967H450.457L441.763 98.1015L438.484 85.0629L431.279 85.8299C431.279 85.8299 432.982 111.31 440.438 110.45C447.889 109.59 465.271 86.6297 463.36 80.7021L463.355 80.6967Z" fill="#006434"/>
<path d="M477.764 146.881C478.3 149.522 477.32 151.938 475.574 152.272C473.828 152.606 471.983 150.738 471.446 148.092C471.216 147.04 471.255 145.95 471.55 144.909L469.426 133.684L474.912 132.818L476.423 143.972C477.101 144.821 477.561 145.818 477.764 146.881Z" fill="#F2A7AA"/>
<path d="M456.003 80.6967C456.003 80.6967 463.333 80.3844 463.711 80.6967C465.709 82.3347 477.446 141.32 477.446 141.32H470.012L455.997 80.6967H456.003Z" fill="#006434"/>
<path d="M150.784 44.875C150.814 44.447 150.701 44.1155 150.443 43.8807C150.189 43.6458 149.788 43.5284 149.239 43.5284C148.875 43.5284 148.564 43.5758 148.307 43.6705C148.049 43.7614 147.847 43.8902 147.699 44.0568C147.551 44.2197 147.458 44.4091 147.42 44.625C147.386 44.7955 147.396 44.947 147.449 45.0795C147.502 45.2121 147.595 45.3295 147.727 45.4318C147.864 45.5341 148.032 45.6231 148.233 45.6989C148.438 45.7746 148.667 45.8409 148.92 45.8977L149.875 46.125C150.428 46.25 150.907 46.4167 151.312 46.625C151.722 46.8295 152.053 47.0777 152.307 47.3693C152.561 47.6572 152.735 47.9886 152.83 48.3636C152.924 48.7386 152.932 49.1591 152.852 49.625C152.731 50.3598 152.441 50.9905 151.983 51.517C151.528 52.0436 150.934 52.447 150.199 52.7273C149.468 53.0076 148.617 53.1477 147.648 53.1477C146.678 53.1477 145.854 53.0019 145.176 52.7102C144.502 52.4148 144.013 51.9697 143.71 51.375C143.407 50.7803 143.326 50.0303 143.466 49.125H146.153C146.112 49.5 146.159 49.8125 146.295 50.0625C146.436 50.3125 146.652 50.5019 146.943 50.6307C147.235 50.7595 147.587 50.8239 148 50.8239C148.379 50.8239 148.71 50.7727 148.994 50.6705C149.282 50.5682 149.511 50.4261 149.682 50.2443C149.856 50.0625 149.962 49.8542 150 49.6193C150.038 49.4034 150.002 49.2159 149.892 49.0568C149.786 48.8977 149.604 48.7595 149.347 48.642C149.093 48.5246 148.759 48.4186 148.347 48.3239L147.182 48.0398C146.22 47.8049 145.491 47.4299 144.994 46.9148C144.502 46.3996 144.328 45.7008 144.472 44.8182C144.593 44.0947 144.892 43.4621 145.369 42.9205C145.85 42.3788 146.458 41.9583 147.193 41.6591C147.932 41.3561 148.744 41.2045 149.631 41.2045C150.532 41.2045 151.29 41.358 151.903 41.6648C152.521 41.9678 152.966 42.3958 153.239 42.9489C153.515 43.4981 153.595 44.1402 153.477 44.875H150.784ZM153.716 53L155.17 44.2727H157.949L156.494 53H153.716ZM156.756 43.25C156.362 43.25 156.042 43.1193 155.795 42.858C155.549 42.5966 155.453 42.2841 155.506 41.9205C155.559 41.553 155.744 41.2405 156.062 40.983C156.381 40.7254 156.735 40.5966 157.125 40.5966C157.519 40.5966 157.835 40.7254 158.074 40.983C158.316 41.2405 158.411 41.553 158.358 41.9205C158.313 42.2841 158.131 42.5966 157.812 42.858C157.498 43.1193 157.146 43.25 156.756 43.25ZM166.871 46.9375L164.365 47.0057C164.369 46.8201 164.327 46.6572 164.24 46.517C164.153 46.3731 164.03 46.2614 163.871 46.1818C163.712 46.1023 163.522 46.0625 163.303 46.0625C162.946 46.0625 162.626 46.142 162.342 46.3011C162.062 46.4602 161.905 46.6667 161.871 46.9205C161.844 47.0568 161.882 47.1761 161.984 47.2784C162.087 47.3769 162.314 47.464 162.666 47.5398L164.303 47.858C165.143 48.0246 165.753 48.3144 166.132 48.7273C166.515 49.1364 166.651 49.678 166.541 50.3523C166.443 50.928 166.189 51.4261 165.78 51.8466C165.375 52.267 164.857 52.5928 164.229 52.8239C163.604 53.0511 162.912 53.1648 162.155 53.1648C160.875 53.1648 159.909 52.9072 159.257 52.392C158.609 51.8731 158.306 51.1856 158.348 50.3295L161.053 50.2614C161.064 50.5833 161.172 50.8258 161.376 50.9886C161.585 51.1477 161.867 51.2311 162.223 51.2386C162.613 51.2462 162.95 51.1648 163.234 50.9943C163.518 50.8239 163.678 50.6136 163.712 50.3636C163.734 50.2008 163.679 50.0739 163.547 49.983C163.418 49.892 163.178 49.8106 162.825 49.7386L161.348 49.4489C160.5 49.286 159.886 48.9792 159.507 48.5284C159.132 48.0739 159.003 47.4943 159.121 46.7898C159.219 46.2292 159.45 45.7538 159.814 45.3636C160.181 44.9697 160.661 44.6705 161.251 44.4659C161.846 44.2614 162.524 44.1591 163.286 44.1591C164.505 44.1591 165.426 44.4072 166.047 44.9034C166.672 45.3958 166.946 46.0739 166.871 46.9375ZM173.847 44.2727L173.5 46.3182H167.994L168.341 44.2727H173.847ZM169.835 42.1818H172.614L171.273 50.2557C171.246 50.4261 171.25 50.5644 171.284 50.6705C171.322 50.7727 171.39 50.8466 171.489 50.892C171.591 50.9337 171.716 50.9545 171.864 50.9545C171.966 50.9545 172.08 50.9432 172.205 50.9205C172.33 50.8977 172.424 50.8807 172.489 50.8693L172.58 52.875C172.432 52.9167 172.233 52.964 171.983 53.017C171.737 53.0739 171.449 53.1098 171.119 53.125C170.453 53.1515 169.902 53.0739 169.466 52.892C169.034 52.7064 168.729 52.4186 168.551 52.0284C168.377 51.6383 168.343 51.1496 168.449 50.5625L169.835 42.1818ZM177.773 53.1648C176.86 53.1648 176.102 52.9848 175.5 52.625C174.902 52.2614 174.481 51.7443 174.239 51.0739C173.996 50.3996 173.953 49.5985 174.108 48.6705C174.259 47.7689 174.568 46.9811 175.034 46.3068C175.504 45.6288 176.095 45.1023 176.807 44.7273C177.519 44.3485 178.312 44.1591 179.188 44.1591C179.809 44.1591 180.36 44.2557 180.841 44.4489C181.322 44.642 181.72 44.9299 182.034 45.3125C182.348 45.6913 182.563 46.1572 182.676 46.7102C182.79 47.2633 182.786 47.8977 182.665 48.6136L182.557 49.3068H174.977L175.233 47.6932H180.233C180.278 47.3977 180.254 47.1345 180.159 46.9034C180.064 46.6723 179.911 46.4924 179.699 46.3636C179.491 46.2311 179.235 46.1648 178.932 46.1648C178.625 46.1648 178.337 46.2367 178.068 46.3807C177.803 46.5208 177.578 46.7102 177.392 46.9489C177.206 47.1875 177.085 47.4564 177.028 47.7557L176.727 49.4091C176.667 49.7765 176.684 50.0909 176.778 50.3523C176.873 50.6136 177.036 50.8144 177.267 50.9545C177.498 51.0909 177.795 51.1591 178.159 51.1591C178.402 51.1591 178.629 51.1269 178.841 51.0625C179.053 50.9943 179.242 50.8939 179.409 50.7614C179.58 50.625 179.718 50.4602 179.824 50.267L182.358 50.3409C182.153 50.9129 181.837 51.411 181.409 51.8352C180.981 52.2557 180.458 52.5833 179.841 52.8182C179.227 53.0492 178.538 53.1648 177.773 53.1648ZM183.374 53L184.828 44.2727H187.47L187.209 45.875H187.305C187.571 45.3447 187.946 44.9261 188.43 44.6193C188.915 44.3125 189.457 44.1591 190.055 44.1591C190.658 44.1591 191.148 44.3144 191.527 44.625C191.91 44.9356 192.116 45.3523 192.146 45.875H192.237C192.487 45.3561 192.874 44.9413 193.396 44.6307C193.923 44.3163 194.51 44.1591 195.158 44.1591C195.976 44.1591 196.599 44.4242 197.027 44.9545C197.459 45.4811 197.597 46.2045 197.442 47.125L196.464 53H193.692L194.578 47.7614C194.639 47.3258 194.574 46.9943 194.385 46.767C194.199 46.536 193.929 46.4205 193.572 46.4205C193.19 46.4205 192.87 46.5436 192.612 46.7898C192.358 47.036 192.201 47.3693 192.141 47.7898L191.26 53H188.584L189.476 47.733C189.533 47.3277 189.47 47.0076 189.288 46.7727C189.11 46.5379 188.839 46.4205 188.476 46.4205C188.237 46.4205 188.016 46.4792 187.811 46.5966C187.607 46.7102 187.434 46.8731 187.294 47.0852C187.158 47.2973 187.069 47.5473 187.027 47.8352L186.152 53H183.374ZM201.607 53L203.538 41.3636H208.345C209.216 41.3636 209.942 41.5322 210.521 41.8693C211.101 42.2064 211.512 42.678 211.754 43.2841C211.997 43.8902 212.052 44.5928 211.919 45.392C211.79 46.1989 211.5 46.9015 211.05 47.5C210.603 48.0985 210.027 48.5625 209.322 48.892C208.618 49.2216 207.817 49.3864 206.919 49.3864H203.959L204.328 47.1705H206.771C207.199 47.1705 207.569 47.0966 207.879 46.9489C208.194 46.8011 208.446 46.5947 208.635 46.3295C208.824 46.0644 208.949 45.7519 209.01 45.392C209.067 45.0322 209.044 44.7216 208.942 44.4602C208.839 44.1951 208.656 43.9905 208.391 43.8466C208.129 43.7027 207.788 43.6307 207.368 43.6307H205.982L204.419 53H201.607ZM215.913 53.1648C215 53.1648 214.243 52.9848 213.641 52.625C213.042 52.2614 212.622 51.7443 212.379 51.0739C212.137 50.3996 212.093 49.5985 212.249 48.6705C212.4 47.7689 212.709 46.9811 213.175 46.3068C213.644 45.6288 214.235 45.1023 214.947 44.7273C215.66 44.3485 216.453 44.1591 217.328 44.1591C217.949 44.1591 218.5 44.2557 218.982 44.4489C219.463 44.642 219.86 44.9299 220.175 45.3125C220.489 45.6913 220.703 46.1572 220.817 46.7102C220.93 47.2633 220.927 47.8977 220.805 48.6136L220.697 49.3068H213.118L213.374 47.6932H218.374C218.419 47.3977 218.394 47.1345 218.3 46.9034C218.205 46.6723 218.052 46.4924 217.839 46.3636C217.631 46.2311 217.375 46.1648 217.072 46.1648C216.766 46.1648 216.478 46.2367 216.209 46.3807C215.944 46.5208 215.718 46.7102 215.533 46.9489C215.347 47.1875 215.226 47.4564 215.169 47.7557L214.868 49.4091C214.807 49.7765 214.824 50.0909 214.919 50.3523C215.014 50.6136 215.177 50.8144 215.408 50.9545C215.639 51.0909 215.936 51.1591 216.3 51.1591C216.542 51.1591 216.769 51.1269 216.982 51.0625C217.194 50.9943 217.383 50.8939 217.55 50.7614C217.72 50.625 217.858 50.4602 217.964 50.267L220.499 50.3409C220.294 50.9129 219.978 51.411 219.55 51.8352C219.122 52.2557 218.599 52.5833 217.982 52.8182C217.368 53.0492 216.679 53.1648 215.913 53.1648ZM225.122 48.0227L224.293 53H221.514L222.969 44.2727H225.611L225.349 45.875H225.446C225.719 45.3409 226.115 44.9223 226.634 44.6193C227.152 44.3125 227.736 44.1591 228.384 44.1591C228.993 44.1591 229.503 44.2955 229.912 44.5682C230.321 44.8409 230.611 45.2235 230.781 45.7159C230.952 46.2045 230.98 46.7784 230.866 47.4375L229.935 53H227.156L227.991 47.983C228.075 47.5019 228.016 47.125 227.815 46.8523C227.618 46.5758 227.296 46.4375 226.849 46.4375C226.558 46.4375 226.291 46.5019 226.048 46.6307C225.81 46.7557 225.609 46.9356 225.446 47.1705C225.287 47.4053 225.179 47.6894 225.122 48.0227ZM234.814 53.125C234.17 53.125 233.611 52.9583 233.138 52.625C232.664 52.2917 232.325 51.7917 232.121 51.125C231.92 50.4583 231.901 49.6307 232.064 48.642C232.234 47.6155 232.537 46.7708 232.973 46.108C233.409 45.4451 233.916 44.9545 234.496 44.6364C235.079 44.3182 235.674 44.1591 236.28 44.1591C236.738 44.1591 237.117 44.2386 237.416 44.3977C237.719 44.553 237.956 44.7538 238.126 45C238.297 45.2462 238.414 45.5019 238.479 45.767H238.541L239.274 41.3636H242.053L240.121 53H237.371L237.604 51.5852H237.518C237.356 51.8542 237.147 52.1061 236.893 52.3409C236.64 52.5758 236.339 52.7652 235.99 52.9091C235.645 53.053 235.253 53.125 234.814 53.125ZM236.126 50.9602C236.464 50.9602 236.768 50.8655 237.041 50.6761C237.314 50.483 237.543 50.2121 237.729 49.8636C237.918 49.5152 238.051 49.1061 238.126 48.6364C238.206 48.1591 238.21 47.7481 238.138 47.4034C238.066 47.0587 237.924 46.7936 237.712 46.608C237.503 46.4223 237.229 46.3295 236.888 46.3295C236.547 46.3295 236.242 46.4242 235.973 46.6136C235.704 46.803 235.481 47.0701 235.303 47.4148C235.125 47.7595 234.996 48.1667 234.916 48.6364C234.84 49.1061 234.833 49.5152 234.893 49.8636C234.958 50.2121 235.092 50.483 235.297 50.6761C235.505 50.8655 235.782 50.9602 236.126 50.9602ZM248.143 49.233L248.973 44.2727H251.746L250.291 53H247.643L247.911 51.375H247.82C247.551 51.9091 247.155 52.3333 246.632 52.6477C246.109 52.9583 245.52 53.1136 244.865 53.1136C244.27 53.1136 243.77 52.9773 243.365 52.7045C242.96 52.4318 242.672 52.0511 242.501 51.5625C242.335 51.0701 242.304 50.4943 242.411 49.8352L243.342 44.2727H246.121L245.286 49.2898C245.214 49.7633 245.276 50.1364 245.473 50.4091C245.674 50.6818 245.988 50.8182 246.416 50.8182C246.693 50.8182 246.952 50.7576 247.195 50.6364C247.437 50.5114 247.642 50.3314 247.808 50.0966C247.979 49.858 248.09 49.5701 248.143 49.233ZM254.94 50.7102L255.503 47.3977H255.884L258.872 44.2727H262.02L257.634 48.75H256.901L254.94 50.7102ZM252.06 53L253.991 41.3636H256.77L254.838 53H252.06ZM257.48 53L255.798 49.375L257.963 47.4034L260.69 53H257.48ZM267.815 49.233L268.645 44.2727H271.418L269.963 53H267.315L267.582 51.375H267.491C267.223 51.9091 266.827 52.3333 266.304 52.6477C265.781 52.9583 265.192 53.1136 264.537 53.1136C263.942 53.1136 263.442 52.9773 263.037 52.7045C262.632 52.4318 262.344 52.0511 262.173 51.5625C262.007 51.0701 261.976 50.4943 262.082 49.8352L263.014 44.2727H265.793L264.957 49.2898C264.885 49.7633 264.948 50.1364 265.145 50.4091C265.346 50.6818 265.66 50.8182 266.088 50.8182C266.365 50.8182 266.624 50.7576 266.866 50.6364C267.109 50.5114 267.313 50.3314 267.48 50.0966C267.651 49.858 267.762 49.5701 267.815 49.233ZM275.357 48.0227L274.527 53H271.749L273.203 44.2727H275.845L275.584 45.875H275.68C275.953 45.3409 276.349 44.9223 276.868 44.6193C277.387 44.3125 277.97 44.1591 278.618 44.1591C279.228 44.1591 279.737 44.2955 280.146 44.5682C280.555 44.8409 280.845 45.2235 281.016 45.7159C281.186 46.2045 281.214 46.7784 281.101 47.4375L280.169 53H277.391L278.226 47.983C278.309 47.5019 278.25 47.125 278.05 46.8523C277.853 46.5758 277.531 46.4375 277.084 46.4375C276.792 46.4375 276.525 46.5019 276.283 46.6307C276.044 46.7557 275.843 46.9356 275.68 47.1705C275.521 47.4053 275.413 47.6894 275.357 48.0227ZM285.395 56.4545C284.562 56.4545 283.868 56.339 283.315 56.108C282.762 55.8769 282.349 55.5606 282.077 55.1591C281.804 54.7576 281.673 54.303 281.685 53.7955L284.344 53.6477C284.366 53.8295 284.433 53.9867 284.543 54.1193C284.652 54.2519 284.81 54.3523 285.014 54.4205C285.219 54.4924 285.473 54.5284 285.776 54.5284C286.241 54.5284 286.647 54.4148 286.991 54.1875C287.336 53.9602 287.548 53.5682 287.628 53.0114L287.884 51.4773H287.787C287.635 51.7462 287.431 51.9867 287.173 52.1989C286.916 52.411 286.611 52.5777 286.259 52.6989C285.906 52.8201 285.516 52.8807 285.088 52.8807C284.448 52.8807 283.889 52.733 283.412 52.4375C282.935 52.1383 282.59 51.6761 282.378 51.0511C282.166 50.4223 282.141 49.6136 282.304 48.625C282.474 47.6061 282.777 46.767 283.213 46.108C283.649 45.4451 284.156 44.9545 284.736 44.6364C285.319 44.3182 285.916 44.1591 286.526 44.1591C286.984 44.1591 287.363 44.2386 287.662 44.3977C287.961 44.553 288.196 44.7538 288.366 45C288.537 45.2462 288.658 45.5019 288.73 45.767H288.81L289.054 44.2727H291.821L290.366 53.0341C290.249 53.7765 289.963 54.4015 289.509 54.9091C289.054 55.4167 288.473 55.8011 287.764 56.0625C287.056 56.3239 286.266 56.4545 285.395 56.4545ZM286.372 50.858C286.709 50.858 287.014 50.7689 287.287 50.5909C287.56 50.4129 287.789 50.1572 287.974 49.8239C288.16 49.4905 288.291 49.0909 288.366 48.625C288.442 48.1515 288.442 47.7443 288.366 47.4034C288.295 47.0587 288.154 46.7936 287.946 46.608C287.738 46.4223 287.463 46.3295 287.122 46.3295C286.777 46.3295 286.471 46.4242 286.202 46.6136C285.937 46.803 285.713 47.0701 285.531 47.4148C285.353 47.7557 285.228 48.1591 285.156 48.625C285.08 49.0909 285.075 49.4905 285.139 49.8239C285.207 50.1572 285.344 50.4129 285.548 50.5909C285.757 50.7689 286.031 50.858 286.372 50.858ZM295.575 53L297.507 41.3636H300.32L299.507 46.2841H299.661L304.32 41.3636H307.632L302.661 46.5568L305.774 53H302.411L300.297 48.4261L298.911 49.8636L298.388 53H295.575ZM310.226 53.1648C309.313 53.1648 308.555 52.9848 307.953 52.625C307.355 52.2614 306.934 51.7443 306.692 51.0739C306.449 50.3996 306.406 49.5985 306.561 48.6705C306.713 47.7689 307.021 46.9811 307.487 46.3068C307.957 45.6288 308.548 45.1023 309.26 44.7273C309.972 44.3485 310.766 44.1591 311.641 44.1591C312.262 44.1591 312.813 44.2557 313.294 44.4489C313.775 44.642 314.173 44.9299 314.487 45.3125C314.802 45.6913 315.016 46.1572 315.129 46.7102C315.243 47.2633 315.239 47.8977 315.118 48.6136L315.01 49.3068H307.43L307.686 47.6932H312.686C312.732 47.3977 312.707 47.1345 312.612 46.9034C312.518 46.6723 312.364 46.4924 312.152 46.3636C311.944 46.2311 311.688 46.1648 311.385 46.1648C311.078 46.1648 310.79 46.2367 310.521 46.3807C310.256 46.5208 310.031 46.7102 309.845 46.9489C309.66 47.1875 309.538 47.4564 309.482 47.7557L309.18 49.4091C309.12 49.7765 309.137 50.0909 309.232 50.3523C309.326 50.6136 309.489 50.8144 309.72 50.9545C309.951 51.0909 310.249 51.1591 310.612 51.1591C310.855 51.1591 311.082 51.1269 311.294 51.0625C311.506 50.9943 311.696 50.8939 311.862 50.7614C312.033 50.625 312.171 50.4602 312.277 50.267L314.811 50.3409C314.607 50.9129 314.29 51.411 313.862 51.8352C313.434 52.2557 312.911 52.5833 312.294 52.8182C311.68 53.0492 310.991 53.1648 310.226 53.1648ZM315.281 56.2727L317.293 44.2727H320.043L319.798 45.767H319.884C320.035 45.5019 320.236 45.2462 320.486 45C320.74 44.7538 321.045 44.553 321.401 44.3977C321.757 44.2386 322.164 44.1591 322.622 44.1591C323.228 44.1591 323.768 44.3182 324.241 44.6364C324.715 44.9545 325.06 45.4451 325.276 46.108C325.491 46.7708 325.514 47.6155 325.344 48.642C325.181 49.6307 324.885 50.4583 324.457 51.125C324.033 51.7917 323.529 52.2917 322.946 52.625C322.363 52.9583 321.751 53.125 321.111 53.125C320.671 53.125 320.3 53.053 319.997 52.9091C319.698 52.7652 319.461 52.5758 319.287 52.3409C319.113 52.1061 318.991 51.8542 318.923 51.5852H318.844L318.071 56.2727H315.281ZM319.287 48.6364C319.211 49.1061 319.207 49.5152 319.276 49.8636C319.344 50.2121 319.482 50.483 319.69 50.6761C319.902 50.8655 320.177 50.9602 320.514 50.9602C320.855 50.9602 321.158 50.8655 321.423 50.6761C321.692 50.483 321.918 50.2121 322.099 49.8636C322.281 49.5152 322.414 49.1061 322.497 48.6364C322.569 48.1667 322.571 47.7595 322.503 47.4148C322.438 47.0701 322.304 46.803 322.099 46.6136C321.895 46.4242 321.62 46.3295 321.276 46.3295C320.938 46.3295 320.632 46.4223 320.355 46.608C320.082 46.7936 319.855 47.0587 319.673 47.4034C319.491 47.7481 319.363 48.1591 319.287 48.6364ZM332.331 49.233L333.161 44.2727H335.933L334.479 53H331.831L332.098 51.375H332.007C331.738 51.9091 331.342 52.3333 330.82 52.6477C330.297 52.9583 329.708 53.1136 329.053 53.1136C328.458 53.1136 327.958 52.9773 327.553 52.7045C327.147 52.4318 326.859 52.0511 326.689 51.5625C326.522 51.0701 326.492 50.4943 326.598 49.8352L327.53 44.2727H330.308L329.473 49.2898C329.401 49.7633 329.464 50.1364 329.661 50.4091C329.861 50.6818 330.176 50.8182 330.604 50.8182C330.88 50.8182 331.14 50.7576 331.382 50.6364C331.625 50.5114 331.829 50.3314 331.996 50.0966C332.166 49.858 332.278 49.5701 332.331 49.233ZM342.628 44.2727L342.281 46.3182H336.776L337.122 44.2727H342.628ZM338.616 42.1818H341.395L340.054 50.2557C340.027 50.4261 340.031 50.5644 340.065 50.6705C340.103 50.7727 340.171 50.8466 340.27 50.892C340.372 50.9337 340.497 50.9545 340.645 50.9545C340.747 50.9545 340.861 50.9432 340.986 50.9205C341.111 50.8977 341.205 50.8807 341.27 50.8693L341.361 52.875C341.213 52.9167 341.014 52.964 340.764 53.017C340.518 53.0739 340.23 53.1098 339.901 53.125C339.234 53.1515 338.683 53.0739 338.247 52.892C337.815 52.7064 337.51 52.4186 337.332 52.0284C337.158 51.6383 337.124 51.1496 337.23 50.5625L338.616 42.1818ZM348.847 49.233L349.676 44.2727H352.449L350.994 53H348.347L348.614 51.375H348.523C348.254 51.9091 347.858 52.3333 347.335 52.6477C346.813 52.9583 346.223 53.1136 345.568 53.1136C344.973 53.1136 344.473 52.9773 344.068 52.7045C343.663 52.4318 343.375 52.0511 343.205 51.5625C343.038 51.0701 343.008 50.4943 343.114 49.8352L344.045 44.2727H346.824L345.989 49.2898C345.917 49.7633 345.979 50.1364 346.176 50.4091C346.377 50.6818 346.691 50.8182 347.119 50.8182C347.396 50.8182 347.655 50.7576 347.898 50.6364C348.14 50.5114 348.345 50.3314 348.511 50.0966C348.682 49.858 348.794 49.5701 348.847 49.233ZM361.371 46.9375L358.865 47.0057C358.869 46.8201 358.827 46.6572 358.74 46.517C358.653 46.3731 358.53 46.2614 358.371 46.1818C358.212 46.1023 358.022 46.0625 357.803 46.0625C357.446 46.0625 357.126 46.142 356.842 46.3011C356.562 46.4602 356.405 46.6667 356.371 46.9205C356.344 47.0568 356.382 47.1761 356.484 47.2784C356.587 47.3769 356.814 47.464 357.166 47.5398L358.803 47.858C359.643 48.0246 360.253 48.3144 360.632 48.7273C361.015 49.1364 361.151 49.678 361.041 50.3523C360.943 50.928 360.689 51.4261 360.28 51.8466C359.875 52.267 359.357 52.5928 358.729 52.8239C358.104 53.0511 357.412 53.1648 356.655 53.1648C355.375 53.1648 354.409 52.9072 353.757 52.392C353.109 51.8731 352.806 51.1856 352.848 50.3295L355.553 50.2614C355.564 50.5833 355.672 50.8258 355.876 50.9886C356.085 51.1477 356.367 51.2311 356.723 51.2386C357.113 51.2462 357.45 51.1648 357.734 50.9943C358.018 50.8239 358.178 50.6136 358.212 50.3636C358.234 50.2008 358.179 50.0739 358.047 49.983C357.918 49.892 357.678 49.8106 357.325 49.7386L355.848 49.4489C355 49.286 354.386 48.9792 354.007 48.5284C353.632 48.0739 353.503 47.4943 353.621 46.7898C353.719 46.2292 353.95 45.7538 354.314 45.3636C354.681 44.9697 355.161 44.6705 355.751 44.4659C356.346 44.2614 357.024 44.1591 357.786 44.1591C359.005 44.1591 359.926 44.4072 360.547 44.9034C361.172 45.3958 361.446 46.0739 361.371 46.9375ZM364.403 53.1477C363.85 53.1477 363.373 53.0549 362.972 52.8693C362.574 52.6799 362.282 52.3939 362.097 52.0114C361.915 51.6288 361.871 51.1515 361.966 50.5795C362.049 50.0947 362.203 49.6875 362.426 49.358C362.653 49.0246 362.932 48.7538 363.261 48.5455C363.595 48.3371 363.966 48.178 364.375 48.0682C364.784 47.9583 365.212 47.8845 365.659 47.8466C366.159 47.8011 366.564 47.7519 366.875 47.6989C367.189 47.6458 367.424 47.572 367.58 47.4773C367.735 47.3788 367.83 47.2424 367.864 47.0682V47.0398C367.909 46.7481 367.847 46.5227 367.676 46.3636C367.506 46.2045 367.25 46.125 366.909 46.125C366.545 46.125 366.235 46.2045 365.977 46.3636C365.72 46.5227 365.54 46.7424 365.438 47.0227L362.892 46.9318C363.051 46.4015 363.324 45.928 363.71 45.5114C364.097 45.0909 364.587 44.7614 365.182 44.5227C365.78 44.2803 366.472 44.1591 367.256 44.1591C367.809 44.1591 368.309 44.2254 368.756 44.358C369.203 44.4867 369.58 44.6761 369.886 44.9261C370.197 45.1723 370.419 45.4754 370.551 45.8352C370.684 46.1951 370.712 46.6061 370.636 47.0682L369.642 53H367.028L367.233 51.7841H367.165C366.96 52.0795 366.72 52.3295 366.443 52.5341C366.17 52.7386 365.864 52.892 365.523 52.9943C365.182 53.0966 364.809 53.1477 364.403 53.1477ZM365.574 51.3295C365.866 51.3295 366.142 51.2689 366.403 51.1477C366.665 51.0265 366.884 50.8598 367.062 50.6477C367.244 50.4318 367.36 50.1818 367.409 49.8977L367.54 49.0682C367.46 49.1098 367.36 49.1477 367.239 49.1818C367.117 49.2159 366.989 49.2481 366.852 49.2784C366.716 49.3049 366.576 49.3314 366.432 49.358C366.292 49.3807 366.157 49.4015 366.028 49.4205C365.756 49.4621 365.519 49.5265 365.318 49.6136C365.117 49.7008 364.956 49.8144 364.835 49.9545C364.718 50.0909 364.646 50.2538 364.619 50.4432C364.574 50.7273 364.64 50.947 364.818 51.1023C364.996 51.2538 365.248 51.3295 365.574 51.3295ZM374.966 48.0227L374.136 53H371.358L372.812 44.2727H375.455L375.193 45.875H375.29C375.563 45.3409 375.958 44.9223 376.477 44.6193C376.996 44.3125 377.58 44.1591 378.227 44.1591C378.837 44.1591 379.347 44.2955 379.756 44.5682C380.165 44.8409 380.455 45.2235 380.625 45.7159C380.795 46.2045 380.824 46.7784 380.71 47.4375L379.778 53H377L377.835 47.983C377.919 47.5019 377.86 47.125 377.659 46.8523C377.462 46.5758 377.14 46.4375 376.693 46.4375C376.402 46.4375 376.134 46.5019 375.892 46.6307C375.653 46.7557 375.453 46.9356 375.29 47.1705C375.131 47.4053 375.023 47.6894 374.966 48.0227Z" fill="#006434"/>
<rect x="144" y="56" width="237" height="19" fill="#FDDD00"/>
<path d="M157.153 71L159.085 59.3636H163.892C164.763 59.3636 165.489 59.5322 166.068 59.8693C166.648 60.2064 167.059 60.678 167.301 61.2841C167.544 61.8902 167.598 62.5928 167.466 63.392C167.337 64.1989 167.047 64.9015 166.597 65.5C166.15 66.0985 165.574 66.5625 164.869 66.892C164.165 67.2216 163.364 67.3864 162.466 67.3864H159.506L159.875 65.1705H162.318C162.746 65.1705 163.116 65.0966 163.426 64.9489C163.741 64.8011 163.992 64.5947 164.182 64.3295C164.371 64.0644 164.496 63.7519 164.557 63.392C164.614 63.0322 164.591 62.7216 164.489 62.4602C164.386 62.1951 164.203 61.9905 163.938 61.8466C163.676 61.7027 163.335 61.6307 162.915 61.6307H161.528L159.966 71H157.153ZM171.46 71.1648C170.547 71.1648 169.79 70.9848 169.188 70.625C168.589 70.2614 168.169 69.7443 167.926 69.0739C167.684 68.3996 167.64 67.5985 167.795 66.6705C167.947 65.7689 168.256 64.9811 168.722 64.3068C169.191 63.6288 169.782 63.1023 170.494 62.7273C171.206 62.3485 172 62.1591 172.875 62.1591C173.496 62.1591 174.047 62.2557 174.528 62.4489C175.009 62.642 175.407 62.9299 175.722 63.3125C176.036 63.6913 176.25 64.1572 176.364 64.7102C176.477 65.2633 176.473 65.8977 176.352 66.6136L176.244 67.3068H168.665L168.92 65.6932H173.92C173.966 65.3977 173.941 65.1345 173.847 64.9034C173.752 64.6723 173.598 64.4924 173.386 64.3636C173.178 64.2311 172.922 64.1648 172.619 64.1648C172.313 64.1648 172.025 64.2367 171.756 64.3807C171.491 64.5208 171.265 64.7102 171.08 64.9489C170.894 65.1875 170.773 65.4564 170.716 65.7557L170.415 67.4091C170.354 67.7765 170.371 68.0909 170.466 68.3523C170.561 68.6136 170.723 68.8144 170.955 68.9545C171.186 69.0909 171.483 69.1591 171.847 69.1591C172.089 69.1591 172.316 69.1269 172.528 69.0625C172.741 68.9943 172.93 68.8939 173.097 68.7614C173.267 68.625 173.405 68.4602 173.511 68.267L176.045 68.3409C175.841 68.9129 175.525 69.411 175.097 69.8352C174.669 70.2557 174.146 70.5833 173.528 70.8182C172.915 71.0492 172.225 71.1648 171.46 71.1648ZM177.061 71L178.516 62.2727H181.158L180.896 63.875H180.993C181.258 63.3447 181.633 62.9261 182.118 62.6193C182.603 62.3125 183.144 62.1591 183.743 62.1591C184.345 62.1591 184.836 62.3144 185.214 62.625C185.597 62.9356 185.804 63.3523 185.834 63.875H185.925C186.175 63.3561 186.561 62.9413 187.084 62.6307C187.61 62.3163 188.197 62.1591 188.845 62.1591C189.663 62.1591 190.286 62.4242 190.714 62.9545C191.146 63.4811 191.285 64.2045 191.129 65.125L190.152 71H187.379L188.266 65.7614C188.326 65.3258 188.262 64.9943 188.072 64.767C187.887 64.536 187.616 64.4205 187.26 64.4205C186.877 64.4205 186.557 64.5436 186.3 64.7898C186.046 65.036 185.889 65.3693 185.828 65.7898L184.947 71H182.271L183.163 65.733C183.22 65.3277 183.158 65.0076 182.976 64.7727C182.798 64.5379 182.527 64.4205 182.163 64.4205C181.925 64.4205 181.703 64.4792 181.499 64.5966C181.294 64.7102 181.122 64.8731 180.982 65.0852C180.845 65.2973 180.756 65.5473 180.714 65.8352L179.839 71H177.061ZM191.857 71L193.311 62.2727H196.089L194.635 71H191.857ZM194.896 61.25C194.502 61.25 194.182 61.1193 193.936 60.858C193.69 60.5966 193.593 60.2841 193.646 59.9205C193.699 59.553 193.885 59.2405 194.203 58.983C194.521 58.7254 194.875 58.5966 195.266 58.5966C195.66 58.5966 195.976 58.7254 196.214 58.983C196.457 59.2405 196.552 59.553 196.499 59.9205C196.453 60.2841 196.271 60.5966 195.953 60.858C195.639 61.1193 195.286 61.25 194.896 61.25ZM201.114 59.3636L199.182 71H196.403L198.335 59.3636H201.114ZM200.95 71L202.405 62.2727H205.183L203.729 71H200.95ZM203.99 61.25C203.596 61.25 203.276 61.1193 203.03 60.858C202.784 60.5966 202.687 60.2841 202.74 59.9205C202.793 59.553 202.979 59.2405 203.297 58.983C203.615 58.7254 203.969 58.5966 204.359 58.5966C204.753 58.5966 205.07 58.7254 205.308 58.983C205.551 59.2405 205.645 59.553 205.592 59.9205C205.547 60.2841 205.365 60.5966 205.047 60.858C204.732 61.1193 204.38 61.25 203.99 61.25ZM209.122 66.0227L208.293 71H205.514L207.446 59.3636H210.134L209.395 63.875H209.491C209.772 63.3371 210.162 62.9167 210.662 62.6136C211.162 62.3106 211.741 62.1591 212.401 62.1591C213.007 62.1591 213.514 62.2955 213.923 62.5682C214.332 62.8371 214.622 63.2178 214.793 63.7102C214.963 64.2027 214.993 64.7784 214.884 65.4375L213.952 71H211.173L212.014 65.983C212.09 65.4981 212.027 65.1193 211.827 64.8466C211.626 64.5739 211.304 64.4375 210.861 64.4375C210.569 64.4375 210.3 64.5019 210.054 64.6307C209.812 64.7557 209.609 64.9356 209.446 65.1705C209.283 65.4053 209.175 65.6894 209.122 66.0227ZM218.107 71.1477C217.554 71.1477 217.076 71.0549 216.675 70.8693C216.277 70.6799 215.985 70.3939 215.8 70.0114C215.618 69.6288 215.574 69.1515 215.669 68.5795C215.752 68.0947 215.906 67.6875 216.129 67.358C216.357 67.0246 216.635 66.7538 216.964 66.5455C217.298 66.3371 217.669 66.178 218.078 66.0682C218.487 65.9583 218.915 65.8845 219.362 65.8466C219.862 65.8011 220.268 65.7519 220.578 65.6989C220.893 65.6458 221.127 65.572 221.283 65.4773C221.438 65.3788 221.533 65.2424 221.567 65.0682V65.0398C221.612 64.7481 221.55 64.5227 221.379 64.3636C221.209 64.2045 220.953 64.125 220.612 64.125C220.249 64.125 219.938 64.2045 219.68 64.3636C219.423 64.5227 219.243 64.7424 219.141 65.0227L216.595 64.9318C216.754 64.4015 217.027 63.928 217.413 63.5114C217.8 63.0909 218.29 62.7614 218.885 62.5227C219.483 62.2803 220.175 62.1591 220.959 62.1591C221.512 62.1591 222.012 62.2254 222.459 62.358C222.906 62.4867 223.283 62.6761 223.589 62.9261C223.9 63.1723 224.122 63.4754 224.254 63.8352C224.387 64.1951 224.415 64.6061 224.339 65.0682L223.345 71H220.732L220.936 69.7841H220.868C220.663 70.0795 220.423 70.3295 220.146 70.5341C219.874 70.7386 219.567 70.892 219.226 70.9943C218.885 71.0966 218.512 71.1477 218.107 71.1477ZM219.277 69.3295C219.569 69.3295 219.845 69.2689 220.107 69.1477C220.368 69.0265 220.588 68.8598 220.766 68.6477C220.947 68.4318 221.063 68.1818 221.112 67.8977L221.243 67.0682C221.163 67.1098 221.063 67.1477 220.942 67.1818C220.821 67.2159 220.692 67.2481 220.555 67.2784C220.419 67.3049 220.279 67.3314 220.135 67.358C219.995 67.3807 219.86 67.4015 219.732 67.4205C219.459 67.4621 219.222 67.5265 219.021 67.6136C218.821 67.7008 218.66 67.8144 218.538 67.9545C218.421 68.0909 218.349 68.2538 218.322 68.4432C218.277 68.7273 218.343 68.947 218.521 69.1023C218.699 69.2538 218.951 69.3295 219.277 69.3295ZM228.669 66.0227L227.839 71H225.061L226.516 62.2727H229.158L228.896 63.875H228.993C229.266 63.3409 229.661 62.9223 230.18 62.6193C230.699 62.3125 231.283 62.1591 231.93 62.1591C232.54 62.1591 233.05 62.2955 233.459 62.5682C233.868 62.8409 234.158 63.2235 234.328 63.7159C234.499 64.2045 234.527 64.7784 234.413 65.4375L233.482 71H230.703L231.538 65.983C231.622 65.5019 231.563 65.125 231.362 64.8523C231.165 64.5758 230.843 64.4375 230.396 64.4375C230.105 64.4375 229.838 64.5019 229.595 64.6307C229.357 64.7557 229.156 64.9356 228.993 65.1705C228.834 65.4053 228.726 65.6894 228.669 66.0227ZM238.622 71L240.554 59.3636H243.366L242.554 64.2841H242.707L247.366 59.3636H250.679L245.707 64.5568L248.821 71H245.457L243.344 66.4261L241.957 67.8636L241.435 71H238.622ZM253.273 71.1648C252.36 71.1648 251.602 70.9848 251 70.625C250.402 70.2614 249.981 69.7443 249.739 69.0739C249.496 68.3996 249.453 67.5985 249.608 66.6705C249.759 65.7689 250.068 64.9811 250.534 64.3068C251.004 63.6288 251.595 63.1023 252.307 62.7273C253.019 62.3485 253.812 62.1591 254.688 62.1591C255.309 62.1591 255.86 62.2557 256.341 62.4489C256.822 62.642 257.22 62.9299 257.534 63.3125C257.848 63.6913 258.063 64.1572 258.176 64.7102C258.29 65.2633 258.286 65.8977 258.165 66.6136L258.057 67.3068H250.477L250.733 65.6932H255.733C255.778 65.3977 255.754 65.1345 255.659 64.9034C255.564 64.6723 255.411 64.4924 255.199 64.3636C254.991 64.2311 254.735 64.1648 254.432 64.1648C254.125 64.1648 253.837 64.2367 253.568 64.3807C253.303 64.5208 253.078 64.7102 252.892 64.9489C252.706 65.1875 252.585 65.4564 252.528 65.7557L252.227 67.4091C252.167 67.7765 252.184 68.0909 252.278 68.3523C252.373 68.6136 252.536 68.8144 252.767 68.9545C252.998 69.0909 253.295 69.1591 253.659 69.1591C253.902 69.1591 254.129 69.1269 254.341 69.0625C254.553 68.9943 254.742 68.8939 254.909 68.7614C255.08 68.625 255.218 68.4602 255.324 68.267L257.858 68.3409C257.653 68.9129 257.337 69.411 256.909 69.8352C256.481 70.2557 255.958 70.5833 255.341 70.8182C254.727 71.0492 254.038 71.1648 253.273 71.1648ZM262.379 74.4545C261.546 74.4545 260.853 74.339 260.3 74.108C259.747 73.8769 259.334 73.5606 259.061 73.1591C258.788 72.7576 258.658 72.303 258.669 71.7955L261.328 71.6477C261.351 71.8295 261.417 71.9867 261.527 72.1193C261.637 72.2519 261.794 72.3523 261.999 72.4205C262.203 72.4924 262.457 72.5284 262.76 72.5284C263.226 72.5284 263.631 72.4148 263.976 72.1875C264.321 71.9602 264.533 71.5682 264.612 71.0114L264.868 69.4773H264.771C264.62 69.7462 264.415 69.9867 264.158 70.1989C263.9 70.411 263.595 70.5777 263.243 70.6989C262.891 70.8201 262.5 70.8807 262.072 70.8807C261.432 70.8807 260.874 70.733 260.396 70.4375C259.919 70.1383 259.574 69.6761 259.362 69.0511C259.15 68.4223 259.125 67.6136 259.288 66.625C259.459 65.6061 259.762 64.767 260.197 64.108C260.633 63.4451 261.141 62.9545 261.72 62.6364C262.304 62.3182 262.9 62.1591 263.51 62.1591C263.968 62.1591 264.347 62.2386 264.646 62.3977C264.946 62.553 265.18 62.7538 265.351 63C265.521 63.2462 265.643 63.5019 265.714 63.767H265.794L266.038 62.2727H268.805L267.351 71.0341C267.233 71.7765 266.947 72.4015 266.493 72.9091C266.038 73.4167 265.457 73.8011 264.749 74.0625C264.04 74.3239 263.25 74.4545 262.379 74.4545ZM263.357 68.858C263.694 68.858 263.999 68.7689 264.271 68.5909C264.544 68.4129 264.773 68.1572 264.959 67.8239C265.144 67.4905 265.275 67.0909 265.351 66.625C265.427 66.1515 265.427 65.7443 265.351 65.4034C265.279 65.0587 265.139 64.7936 264.93 64.608C264.722 64.4223 264.447 64.3295 264.107 64.3295C263.762 64.3295 263.455 64.4242 263.186 64.6136C262.921 64.803 262.697 65.0701 262.516 65.4148C262.338 65.7557 262.213 66.1591 262.141 66.625C262.065 67.0909 262.059 67.4905 262.124 67.8239C262.192 68.1572 262.328 68.4129 262.533 68.5909C262.741 68.7689 263.016 68.858 263.357 68.858ZM269.122 71L270.577 62.2727H273.355L271.901 71H269.122ZM272.162 61.25C271.768 61.25 271.448 61.1193 271.202 60.858C270.955 60.5966 270.859 60.2841 270.912 59.9205C270.965 59.553 271.151 59.2405 271.469 58.983C271.787 58.7254 272.141 58.5966 272.531 58.5966C272.925 58.5966 273.241 58.7254 273.48 58.983C273.723 59.2405 273.817 59.553 273.764 59.9205C273.719 60.2841 273.537 60.5966 273.219 60.858C272.904 61.1193 272.552 61.25 272.162 61.25ZM276.107 71.1477C275.554 71.1477 275.076 71.0549 274.675 70.8693C274.277 70.6799 273.985 70.3939 273.8 70.0114C273.618 69.6288 273.574 69.1515 273.669 68.5795C273.752 68.0947 273.906 67.6875 274.129 67.358C274.357 67.0246 274.635 66.7538 274.964 66.5455C275.298 66.3371 275.669 66.178 276.078 66.0682C276.487 65.9583 276.915 65.8845 277.362 65.8466C277.862 65.8011 278.268 65.7519 278.578 65.6989C278.893 65.6458 279.127 65.572 279.283 65.4773C279.438 65.3788 279.533 65.2424 279.567 65.0682V65.0398C279.612 64.7481 279.55 64.5227 279.379 64.3636C279.209 64.2045 278.953 64.125 278.612 64.125C278.249 64.125 277.938 64.2045 277.68 64.3636C277.423 64.5227 277.243 64.7424 277.141 65.0227L274.595 64.9318C274.754 64.4015 275.027 63.928 275.413 63.5114C275.8 63.0909 276.29 62.7614 276.885 62.5227C277.483 62.2803 278.175 62.1591 278.959 62.1591C279.512 62.1591 280.012 62.2254 280.459 62.358C280.906 62.4867 281.283 62.6761 281.589 62.9261C281.9 63.1723 282.122 63.4754 282.254 63.8352C282.387 64.1951 282.415 64.6061 282.339 65.0682L281.345 71H278.732L278.936 69.7841H278.868C278.663 70.0795 278.423 70.3295 278.146 70.5341C277.874 70.7386 277.567 70.892 277.226 70.9943C276.885 71.0966 276.512 71.1477 276.107 71.1477ZM277.277 69.3295C277.569 69.3295 277.845 69.2689 278.107 69.1477C278.368 69.0265 278.588 68.8598 278.766 68.6477C278.947 68.4318 279.063 68.1818 279.112 67.8977L279.243 67.0682C279.163 67.1098 279.063 67.1477 278.942 67.1818C278.821 67.2159 278.692 67.2481 278.555 67.2784C278.419 67.3049 278.279 67.3314 278.135 67.358C277.995 67.3807 277.86 67.4015 277.732 67.4205C277.459 67.4621 277.222 67.5265 277.021 67.6136C276.821 67.7008 276.66 67.8144 276.538 67.9545C276.421 68.0909 276.349 68.2538 276.322 68.4432C276.277 68.7273 276.343 68.947 276.521 69.1023C276.699 69.2538 276.951 69.3295 277.277 69.3295ZM289.425 62.2727L289.078 64.3182H283.572L283.919 62.2727H289.425ZM285.413 60.1818H288.192L286.851 68.2557C286.824 68.4261 286.828 68.5644 286.862 68.6705C286.9 68.7727 286.968 68.8466 287.067 68.892C287.169 68.9337 287.294 68.9545 287.442 68.9545C287.544 68.9545 287.658 68.9432 287.783 68.9205C287.908 68.8977 288.002 68.8807 288.067 68.8693L288.158 70.875C288.01 70.9167 287.811 70.964 287.561 71.017C287.315 71.0739 287.027 71.1098 286.697 71.125C286.031 71.1515 285.48 71.0739 285.044 70.892C284.612 70.7064 284.307 70.4186 284.129 70.0284C283.955 69.6383 283.921 69.1496 284.027 68.5625L285.413 60.1818ZM291.825 71.1477C291.272 71.1477 290.795 71.0549 290.393 70.8693C289.996 70.6799 289.704 70.3939 289.518 70.0114C289.337 69.6288 289.293 69.1515 289.388 68.5795C289.471 68.0947 289.625 67.6875 289.848 67.358C290.075 67.0246 290.354 66.7538 290.683 66.5455C291.017 66.3371 291.388 66.178 291.797 66.0682C292.206 65.9583 292.634 65.8845 293.081 65.8466C293.581 65.8011 293.986 65.7519 294.297 65.6989C294.611 65.6458 294.846 65.572 295.001 65.4773C295.157 65.3788 295.251 65.2424 295.286 65.0682V65.0398C295.331 64.7481 295.268 64.5227 295.098 64.3636C294.928 64.2045 294.672 64.125 294.331 64.125C293.967 64.125 293.657 64.2045 293.399 64.3636C293.142 64.5227 292.962 64.7424 292.859 65.0227L290.314 64.9318C290.473 64.4015 290.746 63.928 291.132 63.5114C291.518 63.0909 292.009 62.7614 292.604 62.5227C293.202 62.2803 293.893 62.1591 294.678 62.1591C295.231 62.1591 295.731 62.2254 296.178 62.358C296.625 62.4867 297.001 62.6761 297.308 62.9261C297.619 63.1723 297.84 63.4754 297.973 63.8352C298.106 64.1951 298.134 64.6061 298.058 65.0682L297.064 71H294.45L294.655 69.7841H294.587C294.382 70.0795 294.142 70.3295 293.865 70.5341C293.592 70.7386 293.286 70.892 292.945 70.9943C292.604 71.0966 292.231 71.1477 291.825 71.1477ZM292.996 69.3295C293.287 69.3295 293.564 69.2689 293.825 69.1477C294.087 69.0265 294.306 68.8598 294.484 68.6477C294.666 68.4318 294.782 68.1818 294.831 67.8977L294.962 67.0682C294.882 67.1098 294.782 67.1477 294.661 67.1818C294.539 67.2159 294.411 67.2481 294.274 67.2784C294.138 67.3049 293.998 67.3314 293.854 67.358C293.714 67.3807 293.579 67.4015 293.45 67.4205C293.178 67.4621 292.941 67.5265 292.74 67.6136C292.539 67.7008 292.378 67.8144 292.257 67.9545C292.14 68.0909 292.068 68.2538 292.041 68.4432C291.996 68.7273 292.062 68.947 292.24 69.1023C292.418 69.2538 292.67 69.3295 292.996 69.3295ZM302.388 66.0227L301.558 71H298.78L300.234 62.2727H302.876L302.615 63.875H302.712C302.984 63.3409 303.38 62.9223 303.899 62.6193C304.418 62.3125 305.001 62.1591 305.649 62.1591C306.259 62.1591 306.768 62.2955 307.178 62.5682C307.587 62.8409 307.876 63.2235 308.047 63.7159C308.217 64.2045 308.246 64.7784 308.132 65.4375L307.2 71H304.422L305.257 65.983C305.34 65.5019 305.282 65.125 305.081 64.8523C304.884 64.5758 304.562 64.4375 304.115 64.4375C303.823 64.4375 303.556 64.5019 303.314 64.6307C303.075 64.7557 302.875 64.9356 302.712 65.1705C302.553 65.4053 302.445 65.6894 302.388 66.0227ZM312.341 71L314.273 59.3636H322.386L322 61.6477H316.699L316.312 64.0341H321.199L320.812 66.3239H315.926L315.54 68.7159H320.841L320.455 71H312.341ZM325.097 68.7102L325.659 65.3977H326.04L329.028 62.2727H332.176L327.79 66.75H327.057L325.097 68.7102ZM322.216 71L324.148 59.3636H326.926L324.994 71H322.216ZM327.636 71L325.955 67.375L328.119 65.4034L330.847 71H327.636ZM340.324 64.9375L337.818 65.0057C337.822 64.8201 337.78 64.6572 337.693 64.517C337.606 64.3731 337.483 64.2614 337.324 64.1818C337.165 64.1023 336.975 64.0625 336.756 64.0625C336.4 64.0625 336.08 64.142 335.795 64.3011C335.515 64.4602 335.358 64.6667 335.324 64.9205C335.297 65.0568 335.335 65.1761 335.438 65.2784C335.54 65.3769 335.767 65.464 336.119 65.5398L337.756 65.858C338.597 66.0246 339.206 66.3144 339.585 66.7273C339.968 67.1364 340.104 67.678 339.994 68.3523C339.896 68.928 339.642 69.4261 339.233 69.8466C338.828 70.267 338.311 70.5928 337.682 70.8239C337.057 71.0511 336.366 71.1648 335.608 71.1648C334.328 71.1648 333.362 70.9072 332.71 70.392C332.062 69.8731 331.759 69.1856 331.801 68.3295L334.506 68.2614C334.517 68.5833 334.625 68.8258 334.83 68.9886C335.038 69.1477 335.32 69.2311 335.676 69.2386C336.066 69.2462 336.403 69.1648 336.688 68.9943C336.972 68.8239 337.131 68.6136 337.165 68.3636C337.188 68.2008 337.133 68.0739 337 67.983C336.871 67.892 336.631 67.8106 336.278 67.7386L334.801 67.4489C333.953 67.286 333.339 66.9792 332.96 66.5284C332.585 66.0739 332.456 65.4943 332.574 64.7898C332.672 64.2292 332.903 63.7538 333.267 63.3636C333.634 62.9697 334.114 62.6705 334.705 62.4659C335.299 62.2614 335.977 62.1591 336.739 62.1591C337.958 62.1591 338.879 62.4072 339.5 62.9034C340.125 63.3958 340.4 64.0739 340.324 64.9375ZM343.8 68.7102L344.362 65.3977H344.743L347.732 62.2727H350.879L346.493 66.75H345.76L343.8 68.7102ZM340.919 71L342.851 59.3636H345.629L343.697 71H340.919ZM346.339 71L344.658 67.375L346.822 65.4034L349.55 71H346.339ZM356.675 67.233L357.504 62.2727H360.277L358.822 71H356.175L356.442 69.375H356.351C356.082 69.9091 355.686 70.3333 355.163 70.6477C354.641 70.9583 354.052 71.1136 353.396 71.1136C352.802 71.1136 352.302 70.9773 351.896 70.7045C351.491 70.4318 351.203 70.0511 351.033 69.5625C350.866 69.0701 350.836 68.4943 350.942 67.8352L351.874 62.2727H354.652L353.817 67.2898C353.745 67.7633 353.807 68.1364 354.004 68.4091C354.205 68.6818 354.519 68.8182 354.947 68.8182C355.224 68.8182 355.483 68.7576 355.726 68.6364C355.968 68.5114 356.173 68.3314 356.339 68.0966C356.51 67.858 356.622 67.5701 356.675 67.233ZM365.301 59.3636L363.369 71H360.591L362.523 59.3636H365.301Z" fill="black"/>
</g>
<defs>
<clipPath id="clip0_9_112">
<rect width="520" height="254" fill="white"/>
</clipPath>
</defs>
</svg>
