<svg width="681" height="155" viewBox="0 0 681 155" fill="none" xmlns="http://www.w3.org/2000/svg">
<circle cx="77.5" cy="77.5" r="75" fill="#006434" stroke="#FDDD00" stroke-width="5"/>
<path d="M68.785 47.9961C62.928 45.1997 54.7415 43.8299 43.7813 43.7812C42.7476 43.7672 41.7342 44.0686 40.8763 44.6453C40.172 45.1213 39.5956 45.763 39.1976 46.5141C38.7996 47.2652 38.5922 48.1025 38.5938 48.9525V95.332C38.5938 98.4672 40.8244 100.832 43.7813 100.832C55.3024 100.832 66.8591 101.909 73.7812 108.452C73.8759 108.541 73.9949 108.602 74.1235 108.624C74.2521 108.647 74.3845 108.632 74.5044 108.58C74.6242 108.528 74.7262 108.442 74.7977 108.333C74.8691 108.224 74.9069 108.096 74.9063 107.965V53.3165C74.9065 52.9478 74.8277 52.5833 74.675 52.2477C74.5223 51.9121 74.2993 51.6132 74.0211 51.3712C72.4356 50.0157 70.6743 48.8804 68.785 47.9961ZM114.124 44.6404C113.265 44.0652 112.252 43.7655 111.219 43.7812C100.259 43.8299 92.072 45.1932 86.215 47.9961C84.3258 48.8788 82.5641 50.0119 80.9773 51.3647C80.6997 51.6072 80.4773 51.9062 80.3249 52.2417C80.1725 52.5773 80.0937 52.9415 80.0938 53.31V107.962C80.0937 108.087 80.1307 108.21 80.2 108.315C80.2694 108.419 80.3682 108.501 80.4838 108.55C80.5995 108.598 80.7269 108.612 80.8502 108.588C80.9734 108.565 81.087 108.505 81.1766 108.418C85.338 104.284 92.641 100.828 111.225 100.829C112.601 100.829 113.921 100.283 114.893 99.3098C115.866 98.3369 116.413 97.0175 116.413 95.6417V48.9542C116.415 48.1025 116.207 47.2634 115.808 46.5111C115.408 45.7588 114.83 45.1163 114.124 44.6404Z" fill="white"/>
<path d="M173.479 130L179.516 93.6364H194.68C197.402 93.6364 199.622 94.0211 201.338 94.7905C203.054 95.5599 204.262 96.6371 204.96 98.022C205.67 99.407 205.872 101.011 205.564 102.834C205.315 104.207 204.806 105.438 204.037 106.527C203.279 107.604 202.332 108.504 201.196 109.226C200.06 109.936 198.805 110.433 197.432 110.717L197.361 111.072C198.829 111.132 200.125 111.522 201.249 112.244C202.386 112.966 203.226 113.978 203.771 115.281C204.315 116.571 204.439 118.086 204.143 119.826C203.824 121.779 203.037 123.525 201.782 125.064C200.539 126.591 198.9 127.798 196.864 128.686C194.828 129.562 192.472 130 189.797 130H173.479ZM183.476 122.915H188.909C190.791 122.915 192.247 122.554 193.277 121.832C194.319 121.098 194.934 120.092 195.124 118.814C195.277 117.879 195.195 117.074 194.875 116.399C194.555 115.713 194.023 115.186 193.277 114.819C192.531 114.44 191.59 114.251 190.454 114.251H184.861L183.476 122.915ZM185.837 108.587H190.72C191.667 108.587 192.537 108.427 193.33 108.107C194.135 107.788 194.798 107.326 195.319 106.722C195.852 106.119 196.183 105.391 196.313 104.538C196.514 103.319 196.236 102.36 195.479 101.662C194.721 100.964 193.614 100.614 192.158 100.614H187.151L185.837 108.587ZM234.719 93.6364H243.49L239.602 117.092C239.152 119.802 238.116 122.164 236.494 124.176C234.884 126.177 232.831 127.727 230.333 128.828C227.835 129.917 225.054 130.462 221.988 130.462C218.91 130.462 216.312 129.917 214.193 128.828C212.074 127.727 210.541 126.177 209.594 124.176C208.647 122.164 208.393 119.802 208.831 117.092L212.719 93.6364H221.509L217.727 116.328C217.525 117.583 217.62 118.701 218.011 119.684C218.413 120.655 219.064 121.424 219.964 121.992C220.863 122.549 221.964 122.827 223.266 122.827C224.58 122.827 225.782 122.549 226.871 121.992C227.96 121.424 228.859 120.655 229.57 119.684C230.28 118.701 230.736 117.583 230.937 116.328L234.719 93.6364ZM266.808 104.609C266.902 103.272 266.547 102.236 265.742 101.502C264.949 100.768 263.695 100.401 261.978 100.401C260.842 100.401 259.871 100.549 259.066 100.845C258.261 101.129 257.628 101.532 257.166 102.053C256.705 102.562 256.415 103.153 256.296 103.828C256.19 104.361 256.219 104.834 256.385 105.249C256.551 105.663 256.841 106.03 257.255 106.349C257.681 106.669 258.208 106.947 258.835 107.184C259.475 107.421 260.191 107.628 260.984 107.805L263.967 108.516C265.695 108.906 267.192 109.427 268.459 110.078C269.737 110.717 270.773 111.493 271.566 112.404C272.359 113.304 272.904 114.339 273.2 115.511C273.496 116.683 273.519 117.997 273.271 119.453C272.892 121.75 271.986 123.72 270.554 125.366C269.134 127.011 267.275 128.272 264.979 129.148C262.694 130.024 260.037 130.462 257.007 130.462C253.976 130.462 251.402 130.006 249.283 129.094C247.176 128.171 245.649 126.78 244.702 124.922C243.755 123.063 243.5 120.72 243.938 117.891H252.337C252.207 119.062 252.355 120.039 252.781 120.82C253.219 121.602 253.893 122.193 254.805 122.596C255.716 122.998 256.817 123.2 258.107 123.2C259.291 123.2 260.327 123.04 261.215 122.72C262.114 122.401 262.83 121.957 263.363 121.388C263.908 120.82 264.239 120.169 264.357 119.435C264.476 118.761 264.363 118.175 264.02 117.678C263.689 117.18 263.12 116.748 262.316 116.381C261.522 116.014 260.481 115.683 259.191 115.387L255.551 114.499C252.544 113.765 250.265 112.594 248.715 110.984C247.176 109.374 246.631 107.19 247.081 104.432C247.46 102.171 248.395 100.194 249.887 98.5014C251.39 96.8087 253.29 95.4948 255.586 94.5597C257.894 93.6127 260.433 93.1392 263.203 93.1392C266.021 93.1392 268.388 93.6186 270.306 94.5774C272.235 95.5244 273.626 96.862 274.478 98.5902C275.342 100.307 275.591 102.313 275.224 104.609H266.808ZM279.61 100.774L280.817 93.6364H311.552L310.345 100.774H299.318L294.489 130H285.824L290.654 100.774H279.61ZM313.132 130H303.686L321.992 93.6364H333.693L339.926 130H330.48L326.485 102.798H326.2L313.132 130ZM314.269 115.689H334.013L332.877 122.365H313.132L314.269 115.689ZM380.826 93.6364L374.789 130H367.331L356.376 109.013H356.128L352.63 130H343.841L349.878 93.6364H357.442L368.308 114.588H368.61L372.055 93.6364H380.826ZM408.352 93.6364H417.123L413.234 117.092C412.785 119.802 411.749 122.164 410.127 124.176C408.517 126.177 406.464 127.727 403.966 128.828C401.468 129.917 398.687 130.462 395.621 130.462C392.543 130.462 389.945 129.917 387.826 128.828C385.707 127.727 384.174 126.177 383.227 124.176C382.28 122.164 382.026 119.802 382.464 117.092L386.352 93.6364H395.141L391.359 116.328C391.158 117.583 391.253 118.701 391.643 119.684C392.046 120.655 392.697 121.424 393.597 121.992C394.496 122.549 395.597 122.827 396.899 122.827C398.213 122.827 399.415 122.549 400.504 121.992C401.593 121.424 402.492 120.655 403.202 119.684C403.913 118.701 404.368 117.583 404.57 116.328L408.352 93.6364ZM416.595 130L422.632 93.6364H431.421L426.591 122.862H441.719L440.512 130H416.595ZM464.522 130L459.976 93.6364H469.689L471.251 117.464H471.553L481.745 93.6364H489.664L492.007 117.518H492.292L501.738 93.6364H511.432L494.831 130H486.361L483.502 107.947H483.218L472.973 130H464.522ZM512.937 130H503.491L521.797 93.6364H533.498L539.73 130H530.284L526.289 102.798H526.005L512.937 130ZM514.073 115.689H533.818L532.681 122.365H512.937L514.073 115.689ZM558.471 93.6364L552.434 130H543.645L549.682 93.6364H558.471ZM557.828 130L558.68 124.993L580.377 100.774H562.675L563.882 93.6364H592.647L591.812 98.6435L570.079 122.862H587.799L586.592 130H557.828ZM591.985 130L598.022 93.6364H606.811L604.396 108.232H618.725L621.14 93.6364H629.911L623.874 130H615.103L617.518 115.387H603.189L600.774 130H591.985ZM644.214 93.6364L638.177 130H629.388L635.425 93.6364H644.214ZM680.679 93.6364L674.642 130H667.185L656.23 109.013H655.981L652.483 130H643.694L649.731 93.6364H657.295L668.162 114.588H668.463L671.908 93.6364H680.679Z" fill="white"/>
<rect x="173" y="12" width="319" height="60" rx="30" fill="#FDDD00"/>
<path d="M207.021 36.8661C206.922 35.8635 206.495 35.0846 205.741 34.5295C204.987 33.9743 203.963 33.6967 202.671 33.6967C201.792 33.6967 201.051 33.821 200.446 34.0696C199.841 34.3099 199.377 34.6455 199.054 35.0763C198.739 35.5072 198.582 35.9961 198.582 36.543C198.565 36.9987 198.66 37.3964 198.868 37.7362C199.083 38.0759 199.377 38.37 199.75 38.6186C200.123 38.8589 200.554 39.0702 201.043 39.2525C201.531 39.4265 202.054 39.5756 202.609 39.6999L204.896 40.2468C206.006 40.4954 207.025 40.8268 207.953 41.2411C208.881 41.6554 209.685 42.165 210.364 42.7699C211.044 43.3748 211.57 44.0874 211.943 44.9077C212.324 45.728 212.519 46.6684 212.527 47.729C212.519 49.2868 212.121 50.6374 211.334 51.7809C210.555 52.9161 209.428 53.7985 207.953 54.4283C206.487 55.0497 204.717 55.3604 202.646 55.3604C200.591 55.3604 198.801 55.0456 197.277 54.4158C195.76 53.7861 194.575 52.8539 193.722 51.6193C192.877 50.3764 192.433 48.8394 192.392 47.0082H197.6C197.658 47.8616 197.902 48.5742 198.333 49.146C198.772 49.7094 199.356 50.1361 200.086 50.4261C200.823 50.7079 201.656 50.8487 202.584 50.8487C203.495 50.8487 204.287 50.7161 204.958 50.451C205.637 50.1858 206.163 49.8171 206.536 49.3448C206.909 48.8725 207.096 48.3298 207.096 47.7166C207.096 47.1449 206.926 46.6643 206.586 46.2749C206.254 45.8854 205.766 45.554 205.119 45.2805C204.481 45.0071 203.698 44.7585 202.77 44.5348L199.999 43.8388C197.853 43.3168 196.158 42.5006 194.915 41.3903C193.672 40.2799 193.055 38.7843 193.063 36.9034C193.055 35.3622 193.465 34.0157 194.294 32.864C195.131 31.7122 196.278 30.8132 197.737 30.1669C199.195 29.5206 200.852 29.1974 202.708 29.1974C204.597 29.1974 206.246 29.5206 207.655 30.1669C209.072 30.8132 210.174 31.7122 210.961 32.864C211.748 34.0157 212.154 35.3498 212.179 36.8661H207.021ZM216.147 55V29.5455H226.19C228.12 29.5455 229.765 29.9142 231.124 30.6516C232.483 31.3808 233.518 32.3958 234.231 33.6967C234.952 34.9893 235.312 36.4808 235.312 38.1712C235.312 39.8615 234.948 41.353 234.219 42.6456C233.489 43.9382 232.433 44.945 231.049 45.6658C229.674 46.3867 228.008 46.7472 226.053 46.7472H219.652V42.4343H225.183C226.219 42.4343 227.072 42.2562 227.743 41.8999C228.423 41.5353 228.928 41.034 229.259 40.396C229.599 39.7496 229.769 39.008 229.769 38.1712C229.769 37.326 229.599 36.5885 229.259 35.9588C228.928 35.3208 228.423 34.8278 227.743 34.4798C227.064 34.1235 226.202 33.9453 225.158 33.9453H221.529V55H216.147ZM238.808 55V29.5455H244.19V40.7688H244.525L253.686 29.5455H260.136L250.69 40.9428L260.248 55H253.81L246.837 44.5348L244.19 47.7663V55H238.808ZM271.04 55V29.5455H288.191V33.9826H276.421V40.0479H287.309V44.4851H276.421V50.5629H288.241V55H271.04ZM292.47 55V29.5455H297.852V40.7688H298.188L307.348 29.5455H313.798L304.352 40.9428L313.91 55H307.472L300.499 44.5348L297.852 47.7663V55H292.47ZM330.205 36.8661C330.105 35.8635 329.678 35.0846 328.924 34.5295C328.17 33.9743 327.147 33.6967 325.854 33.6967C324.976 33.6967 324.234 33.821 323.63 34.0696C323.025 34.3099 322.561 34.6455 322.238 35.0763C321.923 35.5072 321.765 35.9961 321.765 36.543C321.749 36.9987 321.844 37.3964 322.051 37.7362C322.267 38.0759 322.561 38.37 322.934 38.6186C323.306 38.8589 323.737 39.0702 324.226 39.2525C324.715 39.4265 325.237 39.5756 325.792 39.6999L328.079 40.2468C329.19 40.4954 330.209 40.8268 331.137 41.2411C332.065 41.6554 332.868 42.165 333.548 42.7699C334.227 43.3748 334.754 44.0874 335.126 44.9077C335.508 45.728 335.702 46.6684 335.711 47.729C335.702 49.2868 335.305 50.6374 334.517 51.7809C333.739 52.9161 332.612 53.7985 331.137 54.4283C329.67 55.0497 327.901 55.3604 325.83 55.3604C323.775 55.3604 321.985 55.0456 320.46 54.4158C318.944 53.7861 317.759 52.8539 316.906 51.6193C316.06 50.3764 315.617 48.8394 315.576 47.0082H320.783C320.841 47.8616 321.086 48.5742 321.517 49.146C321.956 49.7094 322.54 50.1361 323.269 50.4261C324.007 50.7079 324.839 50.8487 325.767 50.8487C326.679 50.8487 327.47 50.7161 328.141 50.451C328.821 50.1858 329.347 49.8171 329.72 49.3448C330.093 48.8725 330.279 48.3298 330.279 47.7166C330.279 47.1449 330.109 46.6643 329.77 46.2749C329.438 45.8854 328.949 45.554 328.303 45.2805C327.665 45.0071 326.882 44.7585 325.954 44.5348L323.182 43.8388C321.036 43.3168 319.342 42.5006 318.099 41.3903C316.856 40.2799 316.239 38.7843 316.247 36.9034C316.239 35.3622 316.649 34.0157 317.477 32.864C318.314 31.7122 319.462 30.8132 320.92 30.1669C322.378 29.5206 324.036 29.1974 325.892 29.1974C327.781 29.1974 329.43 29.5206 330.838 30.1669C332.255 30.8132 333.357 31.7122 334.145 32.864C334.932 34.0157 335.338 35.3498 335.363 36.8661H330.205ZM339.331 55V29.5455H344.712V40.7688H345.048L354.208 29.5455H360.659L351.213 40.9428L360.771 55H354.332L347.36 44.5348L344.712 47.7663V55H339.331ZM379.184 29.5455H384.566V46.076C384.566 47.9321 384.122 49.5561 383.236 50.9482C382.358 52.3402 381.127 53.4257 379.544 54.2045C377.962 54.9751 376.118 55.3604 374.014 55.3604C371.901 55.3604 370.053 54.9751 368.47 54.2045C366.888 53.4257 365.657 52.3402 364.779 50.9482C363.901 49.5561 363.461 47.9321 363.461 46.076V29.5455H368.843V45.6161C368.843 46.5856 369.054 47.4473 369.477 48.2013C369.908 48.9554 370.513 49.5478 371.292 49.9787C372.071 50.4096 372.978 50.625 374.014 50.625C375.058 50.625 375.965 50.4096 376.736 49.9787C377.514 49.5478 378.115 48.9554 378.538 48.2013C378.969 47.4473 379.184 46.5856 379.184 45.6161V29.5455ZM388.994 55V29.5455H394.375V50.5629H405.288V55H388.994ZM416.953 29.5455H423.59L430.6 46.6477H430.898L437.908 29.5455H444.545V55H439.325V38.4322H439.113L432.526 54.8757H428.971L422.384 38.37H422.173V55H416.953V29.5455ZM453.366 55H447.599L456.387 29.5455H463.322L472.097 55H466.33L459.954 35.3622H459.755L453.366 55ZM453.006 44.9947H466.628V49.1957H453.006V44.9947Z" fill="#006434"/>
</svg>
